<svg width="100" height="100" viewBox="0 0 100 100" xmlns="http://www.w3.org/2000/svg">
  <!-- Professional Background -->
  <circle cx="50" cy="50" r="48" fill="#f0fdf4" stroke="#22c55e" stroke-width="2"/>
  
  <!-- Face/Head -->
  <path d="M50 25 C35 25, 30 40, 30 50 C30 65, 40 75, 50 75 C60 75, 70 65, 70 50 C70 40, 65 25, 50 25 Z" fill="#ffdbac"/>
  
  <!-- Professional Hair (Simplified) -->
  <path d="M30 50 C30 30, 40 20, 50 20 C60 20, 70 30, 70 50 C70 45, 65 35, 50 35 C35 35, 30 45, 30 50 Z" fill="#4b2c20"/>
  
  <!-- Eyes -->
  <circle cx="43" cy="50" r="3" fill="#333"/>
  <circle cx="57" cy="50" r="3" fill="#333"/>
  
  <!-- Smile -->
  <path d="M45 62 Q50 67 55 62" stroke="#333" stroke-width="2" fill="none" stroke-linecap="round"/>
  
  <!-- Suit/Shoulders -->
  <path d="M30 75 L20 95 L80 95 L70 75 Z" fill="#14532d"/>
  <path d="M50 75 L40 95 L60 95 Z" fill="#ffffff"/> <!-- Shirt -->
</svg>
